<mxfile host="Electron" modified="2023-12-10T09:47:15.722Z" agent="Mozilla/5.0 (Windows NT 10.0; Win64; x64) AppleWebKit/537.36 (KHTML, like Gecko) draw.io/22.0.2 Chrome/114.0.5735.289 Electron/25.8.4 Safari/537.36" etag="Wbxybj60etXSbu0Bmpcr" version="22.0.2" type="device">
  <diagram name="Page-1" id="xAIUPiQQsuFDbpLcUBZB">
    <mxGraphModel dx="2064" dy="108" grid="1" gridSize="10" guides="1" tooltips="1" connect="1" arrows="1" fold="1" page="0" pageScale="1" pageWidth="850" pageHeight="1100" math="0" shadow="0">
      <root>
        <mxCell id="0" />
        <mxCell id="1" parent="0" />
        <mxCell id="gCMCnooDs_9s_WLoUmEO-18" style="edgeStyle=orthogonalEdgeStyle;rounded=1;orthogonalLoop=1;jettySize=auto;html=1;exitX=1;exitY=0.5;exitDx=0;exitDy=0;entryX=0.5;entryY=0;entryDx=0;entryDy=0;" parent="1" source="gCMCnooDs_9s_WLoUmEO-10" target="gCMCnooDs_9s_WLoUmEO-12" edge="1">
          <mxGeometry relative="1" as="geometry" />
        </mxCell>
        <mxCell id="gCMCnooDs_9s_WLoUmEO-10" value="&lt;span style=&quot;font-size: 20px;&quot;&gt;&lt;b&gt;User&lt;/b&gt;&lt;/span&gt;" style="rounded=0;whiteSpace=wrap;html=1;" parent="1" vertex="1">
          <mxGeometry x="-1050" y="480" width="210" height="90" as="geometry" />
        </mxCell>
        <mxCell id="gCMCnooDs_9s_WLoUmEO-16" style="edgeStyle=orthogonalEdgeStyle;rounded=1;orthogonalLoop=1;jettySize=auto;html=1;exitX=1;exitY=0.5;exitDx=0;exitDy=0;entryX=0.5;entryY=1;entryDx=0;entryDy=0;" parent="1" source="gCMCnooDs_9s_WLoUmEO-12" target="gCMCnooDs_9s_WLoUmEO-11" edge="1">
          <mxGeometry relative="1" as="geometry" />
        </mxCell>
        <mxCell id="gCMCnooDs_9s_WLoUmEO-19" style="edgeStyle=orthogonalEdgeStyle;rounded=1;orthogonalLoop=1;jettySize=auto;html=1;exitX=0;exitY=0.5;exitDx=0;exitDy=0;entryX=0.75;entryY=0;entryDx=0;entryDy=0;" parent="1" source="gCMCnooDs_9s_WLoUmEO-11" target="gCMCnooDs_9s_WLoUmEO-12" edge="1">
          <mxGeometry relative="1" as="geometry" />
        </mxCell>
        <mxCell id="gCMCnooDs_9s_WLoUmEO-11" value="&lt;span style=&quot;font-size: 20px;&quot;&gt;&lt;b&gt;Admin&lt;/b&gt;&lt;/span&gt;" style="rounded=0;whiteSpace=wrap;html=1;" parent="1" vertex="1">
          <mxGeometry x="-400" y="480" width="210" height="90" as="geometry" />
        </mxCell>
        <mxCell id="gCMCnooDs_9s_WLoUmEO-15" style="edgeStyle=orthogonalEdgeStyle;rounded=1;orthogonalLoop=1;jettySize=auto;html=1;exitX=0;exitY=0.5;exitDx=0;exitDy=0;entryX=0.5;entryY=1;entryDx=0;entryDy=0;" parent="1" source="gCMCnooDs_9s_WLoUmEO-12" target="gCMCnooDs_9s_WLoUmEO-10" edge="1">
          <mxGeometry relative="1" as="geometry" />
        </mxCell>
        <mxCell id="gCMCnooDs_9s_WLoUmEO-12" value="&lt;font style=&quot;font-size: 20px;&quot;&gt;&lt;b&gt;Online&lt;br&gt;Entrance&lt;br&gt;Preparation&lt;/b&gt;&lt;/font&gt;" style="rounded=0;whiteSpace=wrap;html=1;" parent="1" vertex="1">
          <mxGeometry x="-720" y="730" width="210" height="90" as="geometry" />
        </mxCell>
        <mxCell id="gCMCnooDs_9s_WLoUmEO-20" value="&lt;font style=&quot;font-size: 20px;&quot;&gt;Register&lt;/font&gt;" style="text;html=1;strokeColor=none;fillColor=none;align=center;verticalAlign=middle;whiteSpace=wrap;rounded=0;" parent="1" vertex="1">
          <mxGeometry x="-820" y="460" width="160" height="30" as="geometry" />
        </mxCell>
        <mxCell id="gCMCnooDs_9s_WLoUmEO-21" value="&lt;font style=&quot;font-size: 20px;&quot;&gt;Login&lt;/font&gt;" style="text;html=1;strokeColor=none;fillColor=none;align=center;verticalAlign=middle;whiteSpace=wrap;rounded=0;" parent="1" vertex="1">
          <mxGeometry x="-820" y="490" width="160" height="30" as="geometry" />
        </mxCell>
        <mxCell id="gCMCnooDs_9s_WLoUmEO-23" value="&lt;span style=&quot;font-size: 20px;&quot;&gt;Practice Model Test&lt;/span&gt;" style="text;html=1;strokeColor=none;fillColor=none;align=center;verticalAlign=middle;whiteSpace=wrap;rounded=0;" parent="1" vertex="1">
          <mxGeometry x="-910" y="790" width="180" height="30" as="geometry" />
        </mxCell>
        <mxCell id="gCMCnooDs_9s_WLoUmEO-24" value="&lt;span style=&quot;font-size: 20px;&quot;&gt;View Result&lt;/span&gt;" style="text;html=1;strokeColor=none;fillColor=none;align=center;verticalAlign=middle;whiteSpace=wrap;rounded=0;" parent="1" vertex="1">
          <mxGeometry x="-910" y="830" width="180" height="30" as="geometry" />
        </mxCell>
        <mxCell id="gCMCnooDs_9s_WLoUmEO-25" value="&lt;span style=&quot;font-size: 20px;&quot;&gt;Login&lt;/span&gt;" style="text;html=1;strokeColor=none;fillColor=none;align=center;verticalAlign=middle;whiteSpace=wrap;rounded=0;" parent="1" vertex="1">
          <mxGeometry x="-570" y="460" width="180" height="30" as="geometry" />
        </mxCell>
        <mxCell id="gCMCnooDs_9s_WLoUmEO-26" value="&lt;span style=&quot;font-size: 20px;&quot;&gt;Add Model Test&lt;/span&gt;" style="text;html=1;strokeColor=none;fillColor=none;align=center;verticalAlign=middle;whiteSpace=wrap;rounded=0;" parent="1" vertex="1">
          <mxGeometry x="-570" y="490" width="180" height="30" as="geometry" />
        </mxCell>
        <mxCell id="gCMCnooDs_9s_WLoUmEO-27" value="&lt;span style=&quot;font-size: 20px;&quot;&gt;Display User Details&lt;/span&gt;" style="text;html=1;strokeColor=none;fillColor=none;align=center;verticalAlign=middle;whiteSpace=wrap;rounded=0;" parent="1" vertex="1">
          <mxGeometry x="-480" y="790" width="180" height="30" as="geometry" />
        </mxCell>
      </root>
    </mxGraphModel>
  </diagram>
</mxfile>
